<svg id="Capa_2" data-name="Capa 2" xmlns="http://www.w3.org/2000/svg" viewBox="0 0 410.11 747.26"><defs><style>.cls-1,.cls-2{fill:#fff;}.cls-1,.cls-3{stroke:#000;stroke-linecap:round;stroke-miterlimit:10;stroke-width:15px;}.cls-3{fill:none;}</style></defs><title>Yoshi</title><path class="cls-1" d="M481.25,603.22c24.4-45.93,54-76.28,74-71,18.18,4.77,24.64,38,31.84,75.05A380.77,380.77,0,0,1,593.22,706a89.76,89.76,0,0,1,33.8-1.71c43.84,6.32,67.21,44.35,71.09,50.9,4.51-1.45,11.44-3.66,19.87-6.34C853.87,705.7,866.65,706.2,872.16,712.3c11.24,12.44-9.12,46.49-29.41,80.42a556.44,556.44,0,0,1-91.16,114.67c-2.65,12.8-10.24,40.18-34.28,63.62-3.23,3.15-19.89,19-47.79,29-31.33,11.17-46.18,3.92-89.19,11.71a294,294,0,0,0-47.27,12.69,86.87,86.87,0,0,1,15.11,33.07,92.73,92.73,0,0,1,1.65,25.2c-2.43,27.11-21.56,44.55-34.82,62-12.17,16.07-26.29,41.3-32.64,80.42" transform="translate(-472.76 -516.14)"/><path class="cls-2" d="M580.34,1646.13" transform="translate(-472.76 -516.14)"/><path class="cls-1" d="M480.26,523.64l2.13,716.2" transform="translate(-472.76 -516.14)"/><path class="cls-1" d="M482.3,1255.9l-2-732.26" transform="translate(-472.76 -516.14)"/><path class="cls-3" d="M481.39,784.05c2.88-.79,22.17-5.76,39.24,5.71,15.51,10.42,22.9,30.19,18.36,49.69a71.82,71.82,0,0,1-4.24,33.8,74.48,74.48,0,0,1-26.27,33.67A95.44,95.44,0,0,0,516.1,961,91.77,91.77,0,0,0,550,957.27a90.37,90.37,0,0,0,24.17-11.6,55.18,55.18,0,0,1,3.18-25.74c5.74-15.13,17-24.13,24.4-28.73a61.84,61.84,0,0,1,6.17-3.37,42.92,42.92,0,0,1,31.66-29.47c17.6-3.84,36.32,4.09,46.25,19.84,1.71,19.8-10.25,37.47-26.79,42.46-20.52,6.19-45.87-7.8-51.12-32.83" transform="translate(-472.76 -516.14)"/><path class="cls-3" d="M481.67,839.41a52.46,52.46,0,0,0,21.51,8c18.09,2.43,31.88-5.53,36-8.12" transform="translate(-472.76 -516.14)"/><path class="cls-3" d="M508.48,906.92A70.48,70.48,0,0,1,542,913.37a69.58,69.58,0,0,1,32,30.92" transform="translate(-472.76 -516.14)"/><path class="cls-3" d="M482,1007.94a45,45,0,0,0,9.69,9.17c16.48,11.47,35.92,8.35,41.4,7.28" transform="translate(-472.76 -516.14)"/><path class="cls-3" d="M541.35,995.22c-2.58-.74-14.65-4.49-21.27-16.5-4.05-7.36-3.07-13.39-4.78-16.63-1.9,1.42-7.24,4.54-16.2,4.58a29,29,0,0,1-17.21-5.6" transform="translate(-472.76 -516.14)"/><path class="cls-3" d="M650.59,861.93c-2.38,2.34-12.73,9.16-16.19,21.69-3.22,11.64,5.25,22.46,7,25.19,1.25-.53,13.16-5.72,16.1-19.71C659.76,878.39,654.42,865.72,650.59,861.93Z" transform="translate(-472.76 -516.14)"/><path class="cls-3" d="M518.75,793c-2.12.14-17.46-1.55-26,8.71-10.39,12.44-6.27,27.5-5.86,28.9,1.2.14,15.69,1.57,25.24-9.32C519.45,812.94,518.15,800.65,518.75,793Z" transform="translate(-472.76 -516.14)"/><path class="cls-3" d="M698.11,755.16" transform="translate(-472.76 -516.14)"/><path class="cls-3" d="M574.12,945.67" transform="translate(-472.76 -516.14)"/></svg>